<svg width="360" height="360" viewBox="0 0 360 360" fill="none" xmlns="http://www.w3.org/2000/svg">
<path fill-rule="evenodd" clip-rule="evenodd" d="M91.6138 147.922L69.0331 158.061C64.3854 160.148 58.9173 158.091 56.8197 153.467C54.722 148.844 56.7893 143.404 61.4369 141.317L84.171 131.109C84.2671 131.066 84.3639 131.025 84.4614 130.985C102.726 123.522 119.973 129.411 128.503 142.809C132.928 149.76 134.619 158.106 133.267 166.581C143.544 164.471 153.311 167.292 160.253 173.943C169.179 182.496 172.027 196.134 166.211 208.988C170.226 208.266 174.203 208.311 178.03 209.127C185.253 210.667 191.241 214.808 195.437 220.338C203.796 231.357 205.074 247.663 197.082 262.428C196.912 262.743 196.723 263.048 196.517 263.341L170.665 300.081C167.741 304.237 161.984 305.248 157.807 302.339C153.63 299.43 152.614 293.703 155.538 289.547L181.059 253.276C185.709 244.328 184.209 236.033 180.698 231.405C178.929 229.074 176.663 227.623 174.161 227.089C171.717 226.568 168.358 226.779 164.139 228.96L147.371 238.493C143.728 240.564 139.141 239.931 136.202 236.953C133.263 233.975 132.711 229.4 134.859 225.815L149.028 202.169C152.288 195.728 150.577 190.178 147.443 187.175C144.508 184.363 138.851 182.455 131.045 186.888L114.673 197.746C110.931 200.228 105.936 199.666 102.845 196.416C99.754 193.165 99.4673 188.172 102.166 184.592L107.705 177.244C107.894 176.995 108.095 176.755 108.307 176.525C116.902 167.262 116.329 158.019 112.903 152.639C109.589 147.433 102.244 143.637 91.6138 147.922Z" fill="#50E3C3"/>
<path fill-rule="evenodd" clip-rule="evenodd" d="M193.173 147.922L170.593 158.061C165.945 160.148 160.477 158.091 158.38 153.467C156.282 148.844 158.349 143.404 162.997 141.317L185.731 131.109C185.827 131.066 185.924 131.025 186.021 130.985C204.286 123.522 221.533 129.411 230.063 142.809C234.488 149.76 236.179 158.106 234.827 166.581C245.104 164.471 254.871 167.292 261.812 173.943C270.739 182.496 273.587 196.134 267.771 208.988C271.786 208.266 275.763 208.311 279.589 209.127C286.813 210.667 292.801 214.808 296.996 220.338C305.356 231.357 306.634 247.663 298.642 262.428C298.472 262.743 298.283 263.048 298.077 263.341L272.225 300.081C269.301 304.237 263.544 305.248 259.367 302.339C255.19 299.43 254.174 293.703 257.098 289.547L282.619 253.276C287.269 244.328 285.769 236.033 282.258 231.405C280.489 229.074 278.223 227.623 275.721 227.089C273.276 226.568 269.918 226.779 265.698 228.96L248.931 238.493C245.288 240.564 240.701 239.931 237.761 236.953C234.822 233.975 234.271 229.4 236.419 225.815L250.587 202.169C253.847 195.728 252.137 190.178 249.003 187.175C246.068 184.363 240.411 182.455 232.605 186.888L216.233 197.746C212.491 200.228 207.496 199.666 204.405 196.416C201.314 193.165 201.027 188.172 203.726 184.592L209.265 177.244C209.454 176.995 209.654 176.755 209.867 176.525C218.462 167.262 217.888 158.019 214.463 152.639C211.149 147.433 203.804 143.637 193.173 147.922Z" fill="#E350CD"/>
<path fill-rule="evenodd" clip-rule="evenodd" d="M167.545 56.0385C171.603 56.4506 174.557 60.0575 174.143 64.0947L172.183 83.1998C171.769 87.2371 168.143 90.1759 164.085 89.7639C160.027 89.3518 157.073 85.745 157.487 81.7077L159.447 62.6026C159.861 58.5653 163.487 55.6265 167.545 56.0385ZM100.709 62.2874C104.358 60.4725 108.794 61.9438 110.619 65.5736L118.005 80.2698C119.829 83.8996 118.35 88.3134 114.702 90.1283C111.053 91.9432 106.616 90.4719 104.792 86.8421L97.406 72.1459C95.5817 68.5161 97.0605 64.1023 100.709 62.2874ZM221.874 83.8712C224.759 86.7408 224.759 91.3933 221.874 94.2629L212.642 103.448C209.757 106.318 205.08 106.318 202.196 103.448C199.311 100.578 199.311 95.9259 202.196 93.0563L211.429 83.8712C214.313 81.0015 218.99 81.0015 221.874 83.8712Z" fill="#FFCF1E"/>
</svg>
