<svg width="360" height="360" viewBox="0 0 360 360" fill="none" xmlns="http://www.w3.org/2000/svg">
<path d="M158.793 45.6551C171.853 38.115 187.944 38.115 201.004 45.6551L285.692 94.5499C298.752 102.09 306.797 116.025 306.797 131.105V228.895C306.797 243.975 298.752 257.909 285.692 265.45L201.004 314.344C187.944 321.885 171.853 321.885 158.793 314.344L74.1051 265.45C61.0453 257.909 53 243.975 53 228.895V131.105C53 116.025 61.0453 102.09 74.1051 94.5499L158.793 45.6551Z" fill="#EFEFF1"/>
<path d="M173.475 176.99L126.089 148.558C122.12 146.177 122.203 140.398 126.238 138.131L173.198 111.744C177.716 109.205 183.246 109.276 187.698 111.929L236.153 140.816C240.532 143.427 243.214 148.149 243.214 153.247V206.953C243.214 211.943 240.644 216.58 236.412 219.225L189.727 248.403C185.711 250.913 180.502 248.026 180.502 243.29V189.399C180.502 184.316 177.834 179.605 173.475 176.99Z" fill="url(#paint0_linear_465_9168)"/>
<defs>
<linearGradient id="paint0_linear_465_9168" x1="159.396" y1="118.494" x2="217.888" y2="219.798" gradientUnits="userSpaceOnUse">
<stop offset="0.0281726" stop-color="#101113"/>
<stop offset="0.552083" stop-color="#3C3F47"/>
<stop offset="1" stop-color="#646877"/>
</linearGradient>
</defs>
</svg>
