<svg width="360" height="360" viewBox="0 0 360 360" fill="none" xmlns="http://www.w3.org/2000/svg">
<path fill-rule="evenodd" clip-rule="evenodd" d="M110.557 61.2963L273.33 160.698H273.257C279.89 164.751 283.954 171.95 284 179.727C284.044 187.503 280.064 194.748 273.477 198.877L182.097 256.192C175.296 260.808 166.518 261.337 159.212 257.571C151.907 253.804 147.243 246.344 147.055 238.124C146.865 229.904 151.182 222.238 158.306 218.14L176.592 206.685L218.974 180.109L201.371 169.358L201.087 169.179L147.845 136.665L121.313 120.461V195.262C121.489 203.399 117.251 210.995 110.235 215.115C103.219 219.235 94.5248 219.235 87.5092 215.115C80.4937 210.995 76.2554 203.399 76.4313 195.262V80.4538C76.425 72.3333 80.8048 64.8432 87.883 60.8696C94.9614 56.896 103.633 57.0592 110.557 61.2963ZM77.7914 269.439C81.4341 260.638 90.0177 254.899 99.539 254.899C112.53 254.911 123.06 265.441 123.077 278.439C123.082 287.965 117.349 296.555 108.554 300.204C99.7587 303.852 89.6327 301.84 82.8986 295.106C76.1645 288.371 74.1488 278.241 77.7914 269.439Z" fill="url(#paint0_linear_466_8850)"/>
<defs>
<linearGradient id="paint0_linear_466_8850" x1="76.0112" y1="302.03" x2="284.076" y2="302.03" gradientUnits="userSpaceOnUse">
<stop stop-color="#FF3176"/>
<stop offset="1" stop-color="#FF7369"/>
</linearGradient>
</defs>
</svg>
